<?xml version="1.0" encoding="utf-8"?>
<!-- Generator: Adobe Illustrator 22.1.0, SVG Export Plug-In . SVG Version: 6.00 Build 0)  -->
<svg version="1.0" id="Layer_1" xmlns="http://www.w3.org/2000/svg" xmlns:xlink="http://www.w3.org/1999/xlink" x="0px" y="0px"
	 viewBox="0 0 32 32" style="enable-background:new 0 0 32 32;" xml:space="preserve">
<style type="text/css">
	.st0{fill:#333333;}
</style>
<g>
	<path class="st0" d="M9,31h14c1.7,0,3-1.3,3-3V18c0-1.3-0.8-2.4-2-2.8V9.5C24,4.8,20.4,1,16,1S8,4.8,8,9.5c0,0.6,0.4,1,1,1
		s1-0.4,1-1C10,5.9,12.7,3,16,3s6,2.9,6,6.5V15H9c-1.7,0-3,1.3-3,3v10C6,29.7,7.3,31,9,31z M8,18c0-0.6,0.4-1,1-1h14
		c0.6,0,1,0.4,1,1v10c0,0.6-0.4,1-1,1H9c-0.6,0-1-0.4-1-1V18z"/>
	<path class="st0" d="M15,23.7V26c0,0.6,0.4,1,1,1c0.6,0,1-0.4,1-1v-2.3c0.6-0.3,1-1,1-1.7c0-1.1-0.9-2-2-2s-2,0.9-2,2
		C14,22.7,14.4,23.4,15,23.7z"/>
</g>
</svg>
