<?xml version="1.0" encoding="utf-8"?>
<!-- Generator: Adobe Illustrator 22.1.0, SVG Export Plug-In . SVG Version: 6.00 Build 0)  -->
<svg version="1.0" id="Layer_1" xmlns="http://www.w3.org/2000/svg" xmlns:xlink="http://www.w3.org/1999/xlink" x="0px" y="0px"
	 viewBox="0 0 32 32" style="enable-background:new 0 0 32 32;" xml:space="preserve">
<style type="text/css">
	.st0{fill:#333333;}
</style>
<g>
	<path class="st0" d="M23.2,14.2c0.2-0.9,0.3-1.9,0.3-2.8C23.5,5.6,19.7,1,15.1,1S6.6,5.6,6.6,11.3c0,5.3,3.3,9.7,7.6,10.3
		c0,0.3-0.1,0.7-0.1,1c0,2.7,1.2,5,3.1,6.6H2.9v-2.8c0-2.6,2.1-4.7,4.7-4.7c0.5,0,0.9-0.4,0.9-0.9s-0.4-0.9-0.9-0.9
		c-3.6,0-6.6,2.9-6.6,6.6v3.8C1,30.6,1.4,31,1.9,31h20.6c0,0,0,0,0,0c0,0,0,0,0,0c4.7,0,8.4-3.8,8.4-8.4
		C31,18.1,27.5,14.5,23.2,14.2z M8.5,11.3c0-4.7,2.9-8.4,6.6-8.4s6.6,3.8,6.6,8.4c0,1-0.1,2-0.4,2.9c-3.1,0.5-5.6,2.6-6.6,5.5
		C11.2,19.4,8.5,15.8,8.5,11.3z M22.6,29.1c-3.6,0-6.6-2.9-6.6-6.6s2.9-6.6,6.6-6.6s6.6,2.9,6.6,6.6S26.2,29.1,22.6,29.1z"/>
	<path class="st0" d="M26,19.1c-0.4-0.4-1-0.4-1.3,0l-2.2,2.2l-2.2-2.2c-0.4-0.4-1-0.4-1.3,0s-0.4,1,0,1.3l2.2,2.2l-2.2,2.2
		c-0.4,0.4-0.4,1,0,1.3c0.2,0.2,0.4,0.3,0.7,0.3s0.5-0.1,0.7-0.3l2.2-2.2l2.2,2.2c0.2,0.2,0.4,0.3,0.7,0.3s0.5-0.1,0.7-0.3
		c0.4-0.4,0.4-1,0-1.3l-2.2-2.2l2.2-2.2C26.4,20.1,26.4,19.5,26,19.1z"/>
</g>
</svg>
