<?xml version="1.0" encoding="utf-8"?>
<!-- Generator: Adobe Illustrator 22.1.0, SVG Export Plug-In . SVG Version: 6.00 Build 0)  -->
<svg version="1.0" id="Layer_1" xmlns="http://www.w3.org/2000/svg" xmlns:xlink="http://www.w3.org/1999/xlink" x="0px" y="0px"
	 viewBox="0 0 32 32" style="enable-background:new 0 0 32 32;" xml:space="preserve">
<style type="text/css">
	.st0{fill:none;stroke:#FFFFFF;stroke-width:1.5;stroke-miterlimit:10;}
	.st1{fill:none;stroke:#FFFFFF;stroke-miterlimit:10;}
</style>
<path class="st0" d="M5.5,1c0,0-2,0-2,2s0,26,0,26s0,2,2,2s21,0,21,0s2,0,2-2s0-26,0-26s0-2-2-2S5.5,1,5.5,1z"/>
<line class="st1" x1="9" y1="6" x2="24" y2="6"/>
<line class="st1" x1="9" y1="9" x2="20" y2="9"/>
<line class="st1" x1="9" y1="11" x2="18" y2="11"/>
<g>
	<line class="st1" x1="9" y1="15" x2="18" y2="15"/>
	<line class="st1" x1="9" y1="17" x2="22" y2="17"/>
	<line class="st1" x1="9" y1="21" x2="19.5" y2="21"/>
	<line class="st1" x1="9" y1="23" x2="23" y2="23"/>
	<line class="st1" x1="9" y1="26" x2="21" y2="26"/>
</g>
</svg>
