<?xml version="1.0" encoding="utf-8"?>
<!-- Generator: Adobe Illustrator 22.1.0, SVG Export Plug-In . SVG Version: 6.00 Build 0)  -->
<svg version="1.0" id="Layer_1" xmlns="http://www.w3.org/2000/svg" xmlns:xlink="http://www.w3.org/1999/xlink" x="0px" y="0px"
	 viewBox="0 0 32 32" style="enable-background:new 0 0 32 32;" xml:space="preserve">
<style type="text/css">
	.st0{fill:#333333;}
</style>
<path class="st0" d="M1.7,15.9c0-0.1,0-0.1,0-0.2c0-0.1,0-0.2,0-0.2l0.2-0.4c0,0,0-0.1,0.1-0.2l9.1-8.6c0.6-0.6,1.7-0.6,2.3,0.1
	s0.6,1.7-0.1,2.3l-6.1,5.7h21.4c0.9,0,1.6,0.7,1.6,1.6c0,0.9-0.7,1.6-1.6,1.6H7.3l6.1,5.7c0.6,0.6,0.7,1.6,0.1,2.3
	c-0.3,0.3-0.7,0.5-1.2,0.5c-0.4,0-0.8-0.2-1.1-0.4l-9-8.5L2,16.9l-0.2-0.4c0-0.1-0.1-0.2-0.1-0.3c0,0,0-0.1,0-0.2l0,0L1.7,15.9z"/>
</svg>
