<?xml version="1.0" encoding="utf-8"?>
<!-- Generator: Adobe Illustrator 22.1.0, SVG Export Plug-In . SVG Version: 6.00 Build 0)  -->
<svg version="1.0" id="Layer_1" xmlns="http://www.w3.org/2000/svg" xmlns:xlink="http://www.w3.org/1999/xlink" x="0px" y="0px"
	 viewBox="0 0 32 32" style="enable-background:new 0 0 32 32;" xml:space="preserve">
<style type="text/css">
	.st0{fill:#333333;}
</style>
<g>
	<path class="st0" d="M1,32h22c5,0,9-4,9-9c0-4.7-3.7-8.6-8.4-9c0.2-1,0.4-2,0.4-3c0-6.1-4-11-9-11S6,4.9,6,11
		c0,5.7,3.5,10.4,8.1,10.9c0,0.3-0.1,0.7-0.1,1.1c0,2.8,1.3,5.3,3.4,7H2v-3c0-2.8,2.2-5,5-5c0.6,0,1-0.4,1-1s-0.4-1-1-1
		c-3.9,0-7,3.1-7,7v4C0,31.6,0.4,32,1,32z M8,11c0-5,3.1-9,7-9s7,4,7,9c0,1.1-0.2,2.1-0.4,3.1c-3.3,0.5-5.9,2.8-7,5.8
		C10.9,19.7,8,15.8,8,11z M16,23c0-3.9,3.1-7,7-7s7,3.1,7,7s-3.1,7-7,7S16,26.9,16,23z"/>
	<path class="st0" d="M27,22h-3v-3c0-0.6-0.4-1-1-1s-1,0.4-1,1v3h-3c-0.6,0-1,0.4-1,1s0.4,1,1,1h3v3c0,0.6,0.4,1,1,1s1-0.4,1-1v-3h3
		c0.6,0,1-0.4,1-1S27.6,22,27,22z"/>
</g>
</svg>
