<?xml version="1.0" encoding="utf-8"?>
<!-- Generator: Adobe Illustrator 22.1.0, SVG Export Plug-In . SVG Version: 6.00 Build 0)  -->
<svg version="1.0" id="Layer_1" xmlns="http://www.w3.org/2000/svg" xmlns:xlink="http://www.w3.org/1999/xlink" x="0px" y="0px"
	 viewBox="0 0 32 32" style="enable-background:new 0 0 32 32;" xml:space="preserve">
<style type="text/css">
	.st0{fill:#282828;}
</style>
<path class="st0" d="M17.2,24.1H4.8c-0.3,0-0.5,0.2-0.5,0.5s0.2,0.5,0.5,0.5h12.4c0.3,0,0.5-0.2,0.5-0.5S17.4,24.1,17.2,24.1z
	 M4.8,20.6h7.9c0.3,0,0.5-0.2,0.5-0.5s-0.2-0.5-0.5-0.5H4.8c-0.3,0-0.5,0.2-0.5,0.5S4.5,20.6,4.8,20.6z M17.2,15.1H4.8
	c-0.3,0-0.5,0.2-0.5,0.5s0.2,0.5,0.5,0.5h12.4c0.3,0,0.5-0.2,0.5-0.5S17.4,15.1,17.2,15.1z M29.2,0H12.7c-1.2,0-2.8,0.8-2.8,2.8v5.3
	H2.8C1.6,8.1,0,8.9,0,10.9V29c0,1.2,0.8,2.8,2.8,2.8h16.5c1.1,0,2.7-0.8,2.8-2.8v-5.3h7.1c1.1,0,2.7-0.8,2.8-2.8V2.8
	C32,1.6,31.2,0,29.2,0z M20.4,29c0,1.1-0.9,1.2-1.2,1.2H2.7c-1.1,0-1.2-0.9-1.2-1.2V10.9c0-1.1,1-1.2,1.3-1.2h16.4
	c1.1,0,1.2,0.9,1.2,1.2V29z M30.3,20.9c0,1.1-0.9,1.2-1.2,1.2h-7V10.9c0-1.2-0.8-2.8-2.8-2.8h-8V2.8c0-1.1,1-1.2,1.3-1.2h16.4
	c1.1,0,1.2,0.9,1.2,1.2V20.9z"/>
</svg>
