<?xml version="1.0" encoding="utf-8"?>
<!-- Generator: Adobe Illustrator 22.1.0, SVG Export Plug-In . SVG Version: 6.00 Build 0)  -->
<svg version="1.0" id="Layer_1" xmlns="http://www.w3.org/2000/svg" xmlns:xlink="http://www.w3.org/1999/xlink" x="0px" y="0px"
	 viewBox="0 0 32 32" style="enable-background:new 0 0 32 32;" xml:space="preserve">
<style type="text/css">
	.st0{fill:#333333;}
</style>
<g>
	<path class="st0" d="M30.2,10.5H20V5.3c0-1-0.8-1.8-1.8-1.8H1.8C0.8,3.5,0,4.3,0,5.3V15c0,0.8,0.6,1.6,1.8,1.6h1.8
		C3.5,17.8,3,18.9,2,19.7c-0.3,0.3-0.4,0.7-0.3,1.1c0.1,0.4,0.5,0.6,0.9,0.6c0,0,0,0,0,0c0.6,0,1.5-0.1,2.5-0.4
		c2.1-0.8,3.6-2.4,4.2-4.5H12V22c0,0.8,0.6,1.6,1.8,1.6h8.8c0.6,2,2.2,3.7,4.2,4.5c0.9,0.4,1.9,0.4,2.5,0.4c0,0,0,0,0,0
		c0.4,0,0.8-0.3,0.9-0.6c0.2-0.4,0-0.8-0.3-1.1c-1-0.9-1.6-1.9-1.7-3.1h1.8c1.3,0,1.8-0.8,1.8-1.6v-9.7C32,11.3,31.2,10.5,30.2,10.5
		z M8.6,14.6c-0.5,0-0.9,0.3-1,0.8c-0.3,1.5-1.2,2.7-2.5,3.5c0.5-1,0.7-2.2,0.6-3.4c0-0.5-0.5-0.9-1-0.9H2V5.5h16v5h-4.2
		c-1,0-1.8,0.8-1.8,1.8v2.3H8.6z M30,21.6h-2.6c-0.5,0-1,0.4-1,0.9c-0.1,1.2,0.1,2.3,0.6,3.4c-1.3-0.7-2.2-2-2.5-3.5
		c-0.1-0.5-0.5-0.8-1-0.8H14v-9.1h16V21.6z"/>
	<path class="st0" d="M16,15c0,0.3,0.2,0.5,0.5,0.5h11c0.3,0,0.5-0.2,0.5-0.5s-0.2-0.5-0.5-0.5h-11C16.2,14.5,16,14.7,16,15z"/>
	<path class="st0" d="M27.5,16.5h-11c-0.3,0-0.5,0.2-0.5,0.5s0.2,0.5,0.5,0.5h11c0.3,0,0.5-0.2,0.5-0.5S27.8,16.5,27.5,16.5z"/>
	<path class="st0" d="M27.5,18.5h-11c-0.3,0-0.5,0.2-0.5,0.5s0.2,0.5,0.5,0.5h11c0.3,0,0.5-0.2,0.5-0.5S27.8,18.5,27.5,18.5z"/>
</g>
</svg>
