<?xml version="1.0" encoding="utf-8"?>
<!-- Generator: Adobe Illustrator 22.1.0, SVG Export Plug-In . SVG Version: 6.00 Build 0)  -->
<svg version="1.0" id="Layer_1" xmlns="http://www.w3.org/2000/svg" xmlns:xlink="http://www.w3.org/1999/xlink" x="0px" y="0px"
	 viewBox="0 0 32 32" style="enable-background:new 0 0 32 32;" xml:space="preserve">
<style type="text/css">
	.st0{fill:#FFFFFF;}
</style>
<path class="st0" d="M26.5,31.8h-21c-2,0-2.8-1.6-2.8-2.8V5c0-2,1.6-2.8,2.8-2.8h21c2,0,2.8,1.6,2.8,2.8v24
	C29.2,31,27.6,31.8,26.5,31.8z M5.5,3.8C5.2,3.8,4.2,3.9,4.2,5v24c0,0.3,0.1,1.2,1.2,1.2h21c0.3,0,1.2-0.1,1.2-1.2V5
	c0-0.3-0.1-1.2-1.2-1.2H5.5z"/>
<rect x="9" y="6.5" class="st0" width="15" height="1"/>
<rect x="9" y="9.5" class="st0" width="11" height="1"/>
<rect x="9" y="11.5" class="st0" width="9" height="1"/>
<rect x="9" y="15.5" class="st0" width="9" height="1"/>
<rect x="9" y="17.5" class="st0" width="13" height="1"/>
<rect x="9" y="21.5" class="st0" width="10.5" height="1"/>
<rect x="9" y="23.5" class="st0" width="14" height="1"/>
<rect x="9" y="26.5" class="st0" width="12" height="1"/>
</svg>
