<?xml version="1.0" encoding="utf-8"?>
<!-- Generator: Adobe Illustrator 22.1.0, SVG Export Plug-In . SVG Version: 6.00 Build 0)  -->
<svg version="1.0" id="Layer_1" xmlns="http://www.w3.org/2000/svg" xmlns:xlink="http://www.w3.org/1999/xlink" x="0px" y="0px"
	 viewBox="0 0 32 32" style="enable-background:new 0 0 32 32;" xml:space="preserve">
<style type="text/css">
	.st0{fill:#282828;}
</style>
<path class="st0" d="M19.8,0c-5.5,0-10,4.5-10,10c0,3.8,2.1,7.2,5.4,8.9c0,0,0,0.1,0,0.1v4.5c0,1.1,0.7,2.8,2.8,2.8h3.6
	c2.1,0,2.8-1.7,2.8-2.8V19c0,0,0-0.1,0-0.1c3.3-1.7,5.4-5.2,5.4-8.9C29.8,4.5,25.3,0,19.8,0z M20.6,13.2c-0.2,1.1-0.2,2.1-0.2,3.2
	l0,8h-1.1l0-8c0-1,0-2.1-0.2-3.2l0-0.1l0.8,0l0.8,0L20.6,13.2z M23.4,17.2c-0.2,0.1-0.3,0.2-0.5,0.3c-0.3,0.3-0.5,0.8-0.5,1.5v4.5
	c0,0.3-0.1,0.8-0.8,0.8H21l0-7.9c0-1.1,0-2.2,0.2-3.2l0-0.1l0.3,0c0.3,0,1,0,1.4-0.5c0.2-0.3,0.2-0.7,0.1-1
	c-0.1-0.3-0.3-0.6-0.6-0.7c-0.4-0.1-0.9,0-1.2,0.5c-0.2,0.3-0.4,0.7-0.4,1l0,0.1l-1,0l-0.9,0l0-0.1c-0.1-0.3-0.2-0.7-0.4-1
	c-0.3-0.4-0.8-0.6-1.2-0.5c-0.3,0.1-0.5,0.3-0.6,0.7c-0.1,0.4-0.1,0.8,0.1,1c0.4,0.5,1,0.5,1.3,0.5l0.3,0l0,0.1
	c0.2,1.1,0.2,2.2,0.2,3.2l0,7.9H18c-0.5,0-0.8-0.3-0.8-0.8V19c0-0.7-0.2-1.2-0.5-1.5c-0.1-0.1-0.3-0.2-0.5-0.3
	c-2.7-1.4-4.4-4.1-4.4-7.2c0-4.4,3.6-8,8-8s8,3.6,8,8C27.8,13.1,26.1,15.8,23.4,17.2z M21.4,12.4l0-0.1c0.1-0.3,0.2-0.5,0.3-0.6
	c0.2-0.2,0.4-0.3,0.5-0.2c0.1,0,0.2,0.1,0.2,0.3c0.1,0.2,0,0.4,0,0.5c-0.1,0.2-0.4,0.2-0.7,0.2c0,0-0.1,0-0.1,0L21.4,12.4z
	 M18.3,12.4h-0.2c0,0-0.1,0-0.1,0c-0.3,0-0.6,0-0.7-0.2c-0.1-0.1-0.1-0.3,0-0.5c0-0.1,0.1-0.2,0.2-0.3c0.2-0.1,0.4,0.1,0.5,0.2
	c0.1,0.1,0.2,0.3,0.3,0.6L18.3,12.4z M22.3,26.9h-5c-0.6,0-1,0.4-1,1s0.4,1,1,1h5c0.6,0,1-0.4,1-1S22.9,26.9,22.3,26.9z M22.3,29.7
	h-5c-0.6,0-1,0.4-1,1s0.4,1,1,1h5c0.6,0,1-0.4,1-1S22.9,29.7,22.3,29.7z"/>
</svg>
