<?xml version="1.0" encoding="utf-8"?>
<!-- Generator: Adobe Illustrator 22.1.0, SVG Export Plug-In . SVG Version: 6.00 Build 0)  -->
<svg version="1.0" id="Layer_1" xmlns="http://www.w3.org/2000/svg" xmlns:xlink="http://www.w3.org/1999/xlink" x="0px" y="0px"
	 viewBox="0 0 32 32" style="enable-background:new 0 0 32 32;" xml:space="preserve">
<style type="text/css">
	.st0{fill:#333333;}
	.st1{fill:#282828;}
</style>
<path class="st0" d="M84.3,10.5c-0.2-1.8-1.2-3.4-2.7-4.5s-3.3-1.6-5-1.3c-1.8,0.2-3.4,1.2-4.5,2.7s-1.6,3.3-1.3,5
	c0.2,1.5,0.9,2.8,1.9,3.9l-6.5,8.6c-0.2,0.2-0.2,0.5-0.2,0.7s0.2,0.4,0.4,0.6c0.1,0.1,0.3,0.2,0.6,0.2c0.3,0,0.6-0.2,0.8-0.3
	l6.7-8.7c1,0.6,2.2,0.9,3.3,0.9c0.3,0,0.7,0,0.9-0.1C82.3,17.6,84.8,14.2,84.3,10.5z M78.3,16.5c-2.8,0.4-5.4-1.6-5.8-4.4
	c-0.2-1.4,0.2-2.7,1-3.8c0.8-1.1,2-1.8,3.4-2c0.2,0,0.3,0,0.4,0s0.2,0,0.4,0c1.1,0,2.2,0.4,3.1,1c1.1,0.8,1.8,2,2,3.4
	C83.2,13.5,81.2,16.1,78.3,16.5z M80.3,7.8c-0.9-0.7-2.1-1.1-3.4-0.9c-0.5,0.1-1.1,0.3-1.6,0.6c-0.2,0.1-0.3,0.4-0.2,0.7
	c0.1,0.2,0.4,0.3,0.7,0.2c0.3-0.2,0.8-0.4,1.3-0.5c1-0.1,1.9,0.1,2.7,0.7c0.7,0.6,1.2,1.4,1.4,2.4v0.1c0,0.3,0.2,0.5,0.5,0.5
	s0.5-0.3,0.5-0.5v-0.2C81.9,9.6,81.2,8.5,80.3,7.8z"/>
<path class="st1" d="M9.4,7.3h12.2c0.3,0,0.5-0.2,0.5-0.5c0-0.3-0.3-0.5-0.5-0.5H9.4c-0.3,0-0.5,0.2-0.5,0.5
	C8.9,7.1,9.1,7.3,9.4,7.3z M9.2,11.9h11.2c0.3,0,0.5-0.2,0.5-0.5s-0.3-0.5-0.5-0.5H9.2c-0.3,0-0.5,0.2-0.5,0.5S8.9,11.9,9.2,11.9z
	 M31.9,21.1c0-2.1-0.7-4-1.9-5.5V2.9c0-1.3-0.9-3-3-3H5c-1.3,0-3,0.9-3,3V29c0,1.3,0.9,3,3,3h22c1.2,0,2.9-0.9,3-3v-2.4l0,0
	C31.2,25.1,31.9,23.2,31.9,21.1z M26.9,30.3h-22c-1.2,0-1.3-1-1.3-1.3V2.9c0-1.2,1.1-1.3,1.4-1.3h22c1.2,0,1.3,1,1.3,1.3v11
	c-1.5-1.2-3.4-1.9-5.5-1.9c-2.9,0-5.4,1.3-7.1,3.4H9.2c-0.3,0-0.5,0.2-0.5,0.5s0.2,0.5,0.5,0.5h5.9c-0.6,1.1-1.1,2.3-1.2,3.6H9.2
	c-0.3,0-0.5,0.2-0.5,0.5s0.2,0.5,0.5,0.5h4.6c0,1.3,0.3,2.5,0.8,3.6H9.2c-0.3,0-0.5,0.2-0.5,0.5c0,0.3,0.2,0.5,0.5,0.5h5.9
	c1.6,2.6,4.5,4.4,7.8,4.4c2,0,3.9-0.7,5.4-1.8l0,0.6C28.2,30.2,27.2,30.3,26.9,30.3z M22.8,27.9c-3.7,0-6.8-3-6.8-6.8s3-6.8,6.8-6.8
	c3.7,0,6.8,3,6.8,6.8S26.6,27.9,22.8,27.9z"/>
<g>
	<path class="st0" d="M28.6,20.5c-1-0.8-3.6-2.6-5.8-2.6s-4.8,1.8-5.8,2.6c-0.2,0.2-0.3,0.4-0.3,0.6s0.1,0.5,0.3,0.6
		c1,0.8,3.6,2.6,5.8,2.6s4.8-1.8,5.8-2.6c0.2-0.2,0.3-0.4,0.3-0.6S28.8,20.6,28.6,20.5z M22.8,23.6c-1.9,0-4.3-1.7-5.3-2.4
		c0.9-0.7,3.3-2.4,5.3-2.4s4.3,1.7,5.3,2.4C27.2,21.8,24.8,23.6,22.8,23.6z"/>
	<path class="st0" d="M20.8,21.1c0,1.1,0.9,2,2,2s2-0.9,2-2s-0.9-2-2-2S20.8,20,20.8,21.1z"/>
</g>
</svg>
