<?xml version="1.0" encoding="utf-8"?>
<!-- Generator: Adobe Illustrator 22.1.0, SVG Export Plug-In . SVG Version: 6.00 Build 0)  -->
<svg version="1.0" id="Layer_1" xmlns="http://www.w3.org/2000/svg" xmlns:xlink="http://www.w3.org/1999/xlink" x="0px" y="0px"
	 viewBox="0 0 32 32" style="enable-background:new 0 0 32 32;" xml:space="preserve">
<style type="text/css">
	.st0{fill:#282828;}
	.st1{fill:#333333;}
</style>
<path class="st0" d="M28.2,29c0,1.2-1,1.3-1.3,1.3H4.9c-1.2,0-1.3-1-1.3-1.3V2.9c0-1.2,1.1-1.3,1.4-1.3h22c1.2,0,1.3,1,1.3,1.3V29z
	 M17-0.1H5c-1.3,0-3,0.9-3,3V29c0,1.3,0.9,3,3,3H27c1.2,0,2.9-0.9,3-3V16.5v-1.7V2.9c0-1.3-0.9-3-3-3h-8.5L17-0.1z"/>
<g>
	<path class="st0" d="M13.9,15.5H9.2c-0.3,0-0.5,0.2-0.5,0.5s0.2,0.5,0.5,0.5h5.3L13.9,15.5z"/>
	<path class="st0" d="M12.6,10.7H9.2c-0.3,0-0.5,0.2-0.5,0.5c0,0.3,0.2,0.5,0.5,0.5h3.4L12.6,10.7z"/>
	<path class="st0" d="M20.9,6.9h1.5c0.3,0,0.5-0.2,0.5-0.5s-0.3-0.5-0.5-0.5h-1.6L20.9,6.9z"/>
	<path class="st0" d="M15.8,5.9H9.2c-0.3,0-0.5,0.2-0.5,0.5s0.2,0.5,0.5,0.5h6.2L15.8,5.9z"/>
	<path class="st0" d="M22.4,25.1H9.2c-0.3,0-0.5,0.2-0.5,0.5s0.2,0.5,0.5,0.5h13.2c0.3,0,0.5-0.2,0.5-0.5S22.6,25.1,22.4,25.1z"/>
	<path class="st0" d="M22.8,20.3H9.6c-0.3,0-0.5,0.2-0.5,0.5c0,0.3,0.2,0.5,0.5,0.5h13.2c0.3,0,0.5-0.2,0.5-0.5
		C23.3,20.5,23,20.3,22.8,20.3z"/>
</g>
<path class="st1" d="M25.1,11c-0.2-1.8-1.2-3.4-2.7-4.5c-1.5-1.1-3.3-1.6-5-1.3c-1.8,0.2-3.4,1.2-4.5,2.7c-1.1,1.5-1.6,3.3-1.3,5
	c0.2,1.5,0.9,2.8,1.9,3.9L7,25.4c-0.2,0.2-0.2,0.5-0.2,0.7c0,0.2,0.2,0.4,0.4,0.6c0.1,0.1,0.3,0.2,0.6,0.2c0.3,0,0.6-0.2,0.8-0.3
	l6.7-8.7c1,0.6,2.2,0.9,3.3,0.9c0.3,0,0.7,0,0.9-0.1C23.1,18.1,25.6,14.7,25.1,11z M19.1,17c-2.8,0.4-5.4-1.6-5.8-4.4
	c-0.2-1.4,0.2-2.7,1-3.8c0.8-1.1,2-1.8,3.4-2c0.2,0,0.3,0,0.4,0c0.1,0,0.2,0,0.4,0c1.1,0,2.2,0.4,3.1,1c1.1,0.8,1.8,2,2,3.4
	C23.9,14,21.9,16.6,19.1,17z M21.1,8.3c-0.9-0.7-2.1-1.1-3.4-0.9c-0.5,0.1-1.1,0.3-1.6,0.6c-0.2,0.1-0.3,0.4-0.2,0.7
	c0.1,0.2,0.4,0.3,0.7,0.2c0.3-0.2,0.8-0.4,1.3-0.5c1-0.1,1.9,0.1,2.7,0.7c0.7,0.6,1.2,1.4,1.4,2.4v0.1c0,0.3,0.2,0.5,0.5,0.5
	c0.3,0,0.5-0.3,0.5-0.5l0-0.2C22.7,10.1,22,9,21.1,8.3z"/>
</svg>
